# xmcd
#
# Track frame offsets: 
#        150
#        17462
#        34327
#        55875
#        73110
#        90485
#        110467
#        128085
#        144170
#        159805
#        177702
#        190910
#        207375
#        222222
#        243237
#
# Disc length: 3406 seconds
#
# Revision: 2
# Processed by: cddbd v1.5.2PL0 Copyright (c) Steve Scherf et al.
# Submitted via: ExactAudioCopy v1.0b3
#
DISCID=ce0d4c0f
DTITLE=Gunter Gabriel - 30Tonnen Diesel
DYEAR=1993
DGENRE=Alternative
TTITLE0=Fahrer,Du bist....
TTITLE1=Schlaf nicht ein,am....
TTITLE2=Wenn ich nur ein Trucker wär
TTITLE3=Temporausch
TTITLE4=Mein alter VW
TTITLE5=Wer ist der Mann...
TTITLE6=Dieselknecht
TTITLE7=Wir sind die Fahrer
TTITLE8=Dankwart und Leila
TTITLE9=Mama,lass deinen...
TTITLE10=Ich fahr nie mehr blau
TTITLE11=Deutsches Laster,...
TTITLE12=Die gelben Engel,....
TTITLE13=Ich lieb' die Bullen
TTITLE14=Ich fahre mit dem Auto
EXTD=
EXTT0=
EXTT1=
EXTT2=
EXTT3=
EXTT4=
EXTT5=
EXTT6=
EXTT7=
EXTT8=
EXTT9=
EXTT10=
EXTT11=
EXTT12=
EXTT13=
EXTT14=
PLAYORDER=
